# xmcd
#
# Track frame offsets:
#	182
#	29235
#	70022
#	98590
#	133565
#	178495
#	208690
#	242570
#
# Disc length: 3746 seconds
#
# Revision: 0
# Processed by: cddbd v1.4PL0 Copyright (c) Steve Scherf et al.
# Submitted via: EasyCDDAExtractor 5.0.4.1
#
DISCID=720ea008
DTITLE=Dave Stryker - Blue to the Bone
DYEAR=1996
DGENRE=Blues
TTITLE0=Blues Revisited
TTITLE1=Messenger
TTITLE2=Blue to the Bone
TTITLE3=Swamp Thing
TTITLE4=Bayou Blues
TTITLE5=Tchoupitoulas St.
TTITLE6=Muddy Waters
TTITLE7=One for Mogie
EXTD=
EXTT0=
EXTT1=
EXTT2=
EXTT3=
EXTT4=
EXTT5=
EXTT6=
EXTT7=
PLAYORDER=
